<svg id="visual" viewBox="0 0 960 300" width="960" height="300" xmlns="http://www.w3.org/2000/svg" xmlnsXlink="http://www.w3.org/1999/xlink" version="1.1"><rect x="0" y="0" width="960" height="300" fill="#130d0a"></rect><path d="M0 204L22.8 205.2C45.7 206.3 91.3 208.7 137 210C182.7 211.3 228.3 211.7 274 207.7C319.7 203.7 365.3 195.3 411.2 195.7C457 196 503 205 548.8 207.5C594.7 210 640.3 206 686 199.5C731.7 193 777.3 184 823 183C868.7 182 914.3 189 937.2 192.5L960 196L960 301L937.2 301C914.3 301 868.7 301 823 301C777.3 301 731.7 301 686 301C640.3 301 594.7 301 548.8 301C503 301 457 301 411.2 301C365.3 301 319.7 301 274 301C228.3 301 182.7 301 137 301C91.3 301 45.7 301 22.8 301L0 301Z" fill="#0066ff"></path><path d="M0 209L22.8 213C45.7 217 91.3 225 137 230C182.7 235 228.3 237 274 232C319.7 227 365.3 215 411.2 210.5C457 206 503 209 548.8 208C594.7 207 640.3 202 686 200C731.7 198 777.3 199 823 201.5C868.7 204 914.3 208 937.2 210L960 212L960 301L937.2 301C914.3 301 868.7 301 823 301C777.3 301 731.7 301 686 301C640.3 301 594.7 301 548.8 301C503 301 457 301 411.2 301C365.3 301 319.7 301 274 301C228.3 301 182.7 301 137 301C91.3 301 45.7 301 22.8 301L0 301Z" fill="#5646c5"></path><path d="M0 248L22.8 245.3C45.7 242.7 91.3 237.3 137 233.5C182.7 229.7 228.3 227.3 274 226.2C319.7 225 365.3 225 411.2 228.7C457 232.3 503 239.7 548.8 239.2C594.7 238.7 640.3 230.3 686 230.8C731.7 231.3 777.3 240.7 823 241.8C868.7 243 914.3 236 937.2 232.5L960 229L960 301L937.2 301C914.3 301 868.7 301 823 301C777.3 301 731.7 301 686 301C640.3 301 594.7 301 548.8 301C503 301 457 301 411.2 301C365.3 301 319.7 301 274 301C228.3 301 182.7 301 137 301C91.3 301 45.7 301 22.8 301L0 301Z" fill="#5d298e"></path><path d="M0 269L22.8 265.2C45.7 261.3 91.3 253.7 137 253.8C182.7 254 228.3 262 274 262.5C319.7 263 365.3 256 411.2 252.2C457 248.3 503 247.7 548.8 246.8C594.7 246 640.3 245 686 245.7C731.7 246.3 777.3 248.7 823 251.5C868.7 254.3 914.3 257.7 937.2 259.3L960 261L960 301L937.2 301C914.3 301 868.7 301 823 301C777.3 301 731.7 301 686 301C640.3 301 594.7 301 548.8 301C503 301 457 301 411.2 301C365.3 301 319.7 301 274 301C228.3 301 182.7 301 137 301C91.3 301 45.7 301 22.8 301L0 301Z" fill="#50105d"></path><path d="M0 283L22.8 283.3C45.7 283.7 91.3 284.3 137 282.3C182.7 280.3 228.3 275.7 274 274.7C319.7 273.7 365.3 276.3 411.2 275.7C457 275 503 271 548.8 270.8C594.7 270.7 640.3 274.3 686 276.7C731.7 279 777.3 280 823 278.2C868.7 276.3 914.3 271.7 937.2 269.3L960 267L960 301L937.2 301C914.3 301 868.7 301 823 301C777.3 301 731.7 301 686 301C640.3 301 594.7 301 548.8 301C503 301 457 301 411.2 301C365.3 301 319.7 301 274 301C228.3 301 182.7 301 137 301C91.3 301 45.7 301 22.8 301L0 301Z" fill="#3a0034"></path></svg>